<svg width="36" height="33" viewBox="0 0 36 33" fill="none" xmlns="http://www.w3.org/2000/svg">
<path d="M2.99992 26.3267C2.55789 26.3267 2.13397 26.1511 1.82141 25.8385C1.50885 25.5259 1.33325 25.102 1.33325 24.66V2.99333C1.33325 2.5513 1.50885 2.12738 1.82141 1.81482C2.13397 1.50225 2.55789 1.32666 2.99992 1.32666H11.3333C13.1014 1.32666 14.7971 2.02904 16.0473 3.27928C17.2975 4.52952 17.9999 6.22522 17.9999 7.99333C17.9999 6.22522 18.7023 4.52952 19.9525 3.27928C21.2028 2.02904 22.8985 1.32666 24.6666 1.32666H32.9999C33.4419 1.32666 33.8659 1.50225 34.1784 1.81482C34.491 2.12738 34.6666 2.5513 34.6666 2.99333V24.66C34.6666 25.102 34.491 25.5259 34.1784 25.8385C33.8659 26.1511 33.4419 26.3267 32.9999 26.3267H22.9999C21.6738 26.3267 20.4021 26.8534 19.4644 27.7911C18.5267 28.7288 17.9999 30.0006 17.9999 31.3267C17.9999 30.0006 17.4731 28.7288 16.5355 27.7911C15.5978 26.8534 14.326 26.3267 12.9999 26.3267H2.99992Z" stroke="#00AEEF" stroke-width="2" stroke-linecap="round" stroke-linejoin="round"/>
</svg>
