<svg width="40" height="41" viewBox="0 0 40 41" fill="none" xmlns="http://www.w3.org/2000/svg">
<path d="M16.6666 24.7612V27.4712C16.6603 28.0423 16.5074 28.6021 16.2226 29.0971C15.9378 29.5921 15.5305 30.0055 15.04 30.2979C13.9985 31.0693 13.1514 32.0729 12.5658 33.229C11.9802 34.3851 11.6723 35.6619 11.6666 36.9579" stroke="#00AEEF" stroke-width="2" stroke-linecap="round" stroke-linejoin="round"/>
<path d="M23.3334 24.7612V27.4712C23.3397 28.0423 23.4926 28.6021 23.7774 29.0971C24.0622 29.5921 24.4695 30.0055 24.96 30.2979C26.0015 31.0693 26.8486 32.0729 27.4342 33.229C28.0198 34.3851 28.3277 35.6619 28.3334 36.9579" stroke="#00AEEF" stroke-width="2" stroke-linecap="round" stroke-linejoin="round"/>
<path d="M30 15.328H32.5C33.6051 15.328 34.6649 14.889 35.4463 14.1076C36.2277 13.3262 36.6667 12.2664 36.6667 11.1613C36.6667 10.0562 36.2277 8.99642 35.4463 8.21502C34.6649 7.43362 33.6051 6.99463 32.5 6.99463H30" stroke="#00AEEF" stroke-width="2" stroke-linecap="round" stroke-linejoin="round"/>
<path d="M6.66663 36.9946H33.3333" stroke="#00AEEF" stroke-width="2" stroke-linecap="round" stroke-linejoin="round"/>
<path d="M10 15.3283C10 17.9805 11.0536 20.524 12.9289 22.3994C14.8043 24.2747 17.3478 25.3283 20 25.3283C22.6522 25.3283 25.1957 24.2747 27.0711 22.3994C28.9464 20.524 30 17.9805 30 15.3283V5.32829C30 4.88626 29.8244 4.46234 29.5118 4.14978C29.1993 3.83722 28.7754 3.66162 28.3333 3.66162H11.6667C11.2246 3.66162 10.8007 3.83722 10.4882 4.14978C10.1756 4.46234 10 4.88626 10 5.32829V15.3283Z" stroke="#00AEEF" stroke-width="2" stroke-linecap="round" stroke-linejoin="round"/>
<path d="M10 15.328H7.50004C6.39497 15.328 5.33516 14.889 4.55376 14.1076C3.77236 13.3262 3.33337 12.2664 3.33337 11.1613C3.33337 10.0562 3.77236 8.99642 4.55376 8.21502C5.33516 7.43362 6.39497 6.99463 7.50004 6.99463H10" stroke="#00AEEF" stroke-width="2" stroke-linecap="round" stroke-linejoin="round"/>
</svg>
