<svg width="40" height="41" viewBox="0 0 40 41" fill="none" xmlns="http://www.w3.org/2000/svg">
<path d="M6.66663 32.8263V7.82633C6.66663 6.72127 7.10561 5.66146 7.88701 4.88006C8.66842 4.09865 9.72822 3.65967 10.8333 3.65967H31.6666C32.1087 3.65967 32.5326 3.83526 32.8451 4.14782C33.1577 4.46038 33.3333 4.88431 33.3333 5.32633V35.3263C33.3333 35.7684 33.1577 36.1923 32.8451 36.5048C32.5326 36.8174 32.1087 36.993 31.6666 36.993H10.8333C9.72822 36.993 8.66842 36.554 7.88701 35.7726C7.10561 34.9912 6.66663 33.9314 6.66663 32.8263ZM6.66663 32.8263C6.66663 31.7213 7.10561 30.6615 7.88701 29.8801C8.66842 29.0987 9.72822 28.6597 10.8333 28.6597H33.3333" stroke="white" stroke-width="2" stroke-linecap="round" stroke-linejoin="round"/>
</svg>
