<svg width="40" height="41" viewBox="0 0 40 41" fill="none" xmlns="http://www.w3.org/2000/svg">
<path d="M25.7951 21.8096L28.3201 36.0196C28.3484 36.1869 28.3249 36.3589 28.2528 36.5125C28.1807 36.6661 28.0634 36.7941 27.9166 36.8792C27.7698 36.9644 27.6006 37.0027 27.4314 36.9891C27.2623 36.9754 27.1013 36.9105 26.9701 36.8029L21.0034 32.3246C20.7154 32.1094 20.3655 31.9931 20.0059 31.9931C19.6464 31.9931 19.2964 32.1094 19.0084 32.3246L13.0317 36.8012C12.9006 36.9086 12.7398 36.9735 12.5709 36.9871C12.402 37.0008 12.2329 36.9626 12.0862 36.8777C11.9395 36.7928 11.8222 36.6651 11.7499 36.5118C11.6777 36.3585 11.6539 36.1868 11.6817 36.0196L14.2051 21.8096" stroke="white" stroke-width="2" stroke-linecap="round" stroke-linejoin="round"/>
<path d="M20 23.6597C25.5228 23.6597 30 19.1825 30 13.6597C30 8.13682 25.5228 3.65967 20 3.65967C14.4772 3.65967 10 8.13682 10 13.6597C10 19.1825 14.4772 23.6597 20 23.6597Z" stroke="white" stroke-width="2" stroke-linecap="round" stroke-linejoin="round"/>
</svg>
