<svg width="40" height="41" viewBox="0 0 40 41" fill="none" xmlns="http://www.w3.org/2000/svg">
<path d="M26.6667 35.3262V31.9928C26.6667 30.2247 25.9643 28.529 24.7141 27.2788C23.4638 26.0286 21.7682 25.3262 20 25.3262H10C8.23193 25.3262 6.53624 26.0286 5.286 27.2788C4.03575 28.529 3.33337 30.2247 3.33337 31.9928V35.3262" stroke="white" stroke-width="2" stroke-linecap="round" stroke-linejoin="round"/>
<path d="M26.6666 5.53955C28.0962 5.91017 29.3623 6.74499 30.2661 7.91299C31.1699 9.08099 31.6603 10.516 31.6603 11.9929C31.6603 13.4697 31.1699 14.9048 30.2661 16.0728C29.3623 17.2408 28.0962 18.0756 26.6666 18.4462" stroke="white" stroke-width="2" stroke-linecap="round" stroke-linejoin="round"/>
<path d="M36.6666 35.3263V31.993C36.6655 30.5158 36.1739 29.0809 35.2689 27.9135C34.3639 26.7461 33.0968 25.9122 31.6666 25.543" stroke="white" stroke-width="2" stroke-linecap="round" stroke-linejoin="round"/>
<path d="M15 18.6595C18.6819 18.6595 21.6667 15.6747 21.6667 11.9928C21.6667 8.31094 18.6819 5.32617 15 5.32617C11.3181 5.32617 8.33337 8.31094 8.33337 11.9928C8.33337 15.6747 11.3181 18.6595 15 18.6595Z" stroke="white" stroke-width="2" stroke-linecap="round" stroke-linejoin="round"/>
</svg>
