<svg width="40" height="41" viewBox="0 0 40 41" fill="none" xmlns="http://www.w3.org/2000/svg">
<path d="M15 30.3281V8.66146L35 5.32812V26.9948" stroke="#00AEEF" stroke-width="2" stroke-linecap="round" stroke-linejoin="round"/>
<path d="M10 35.3281C12.7614 35.3281 15 33.0895 15 30.3281C15 27.5667 12.7614 25.3281 10 25.3281C7.23858 25.3281 5 27.5667 5 30.3281C5 33.0895 7.23858 35.3281 10 35.3281Z" stroke="#00AEEF" stroke-width="2" stroke-linecap="round" stroke-linejoin="round"/>
<path d="M30 31.9946C32.7614 31.9946 35 29.7561 35 26.9946C35 24.2332 32.7614 21.9946 30 21.9946C27.2386 21.9946 25 24.2332 25 26.9946C25 29.7561 27.2386 31.9946 30 31.9946Z" stroke="#00AEEF" stroke-width="2" stroke-linecap="round" stroke-linejoin="round"/>
</svg>
